<svg width="98" height="97" viewBox="0 0 98 97" fill="none" xmlns="http://www.w3.org/2000/svg">
<path fill-rule="evenodd" clip-rule="evenodd" d="M93.6367 44.4343C93.1773 43.4499 92.9553 42.2852 92.9078 41.1886C92.7899 38.49 92.8902 35.7816 92.767 33.0831C92.6567 30.6664 91.7854 28.4884 89.4411 27.2426C87.377 26.146 84.9844 26.0369 82.6875 26.0111V30.3239C83.4531 30.3496 83.2648 30.3731 83.4516 30.383C86.5363 30.533 87.5699 31.5015 87.6089 34.5305C87.638 36.7827 87.6181 39.0364 87.6549 41.2879C87.7 44.0198 88.112 46.6274 90.6362 48.3522C90.6791 48.3818 90.6753 48.4901 90.6998 48.6159C89.415 49.5192 88.3983 50.6825 88.1028 52.2701C87.8647 53.5546 87.7299 54.8694 87.6893 56.1751C87.6158 58.538 87.6916 60.9061 87.6235 63.269C87.5699 65.1196 86.6841 65.988 84.8642 66.4003C84.1789 66.5564 83.4531 66.6117 82.6875 66.708V71.0101C84.2188 70.9191 84.9974 70.8592 86.0463 70.7471C89.9939 70.3242 92.2165 68.291 92.672 64.5004C92.8144 63.3122 92.7983 62.1012 92.8251 60.9008C92.8757 58.6509 92.8496 56.3903 93.0533 54.154C93.2608 51.8723 94.9375 50.6113 97.2344 50.7371V46.2273C95.7031 46.4986 94.2921 45.8431 93.6367 44.4343ZM21.6779 53.6289C21.6771 44.8769 21.4375 36.1249 21.4375 27.3737V25.9967C19.1406 25.9967 16.6707 25.9748 14.2475 26.0074C13.2637 26.0202 12.3962 26.1036 11.4208 26.2355C7.68687 26.7386 5.88689 28.4733 5.22539 32.1555C5.03398 33.2179 5.07227 34.3221 5.05619 35.4088C5.02633 37.4746 5.08605 39.5411 5.05236 41.6062C5.01025 44.207 3.77223 46.2228 1.09255 46.3758C0.997609 46.3811 1.53125 46.4895 0.765625 46.5547V50.5749C3.82812 51.0508 4.80277 52.2747 5.00642 55.0907C5.03858 55.5393 5.047 55.9917 5.05159 56.4426C5.07763 58.9586 5.04853 61.4783 5.16337 63.9897C5.27133 66.3336 5.79731 68.4282 8.03523 69.6581C10.1254 70.807 13.0156 70.9002 14.5469 70.96V66.6678C14.5469 66.6314 14.3861 66.5981 14.2368 66.589C10.9147 66.3882 10.166 65.4955 10.1461 62.205C10.133 60.0263 10.2272 57.8476 10.192 55.6689C10.1476 52.9317 9.74334 50.3354 7.23975 48.6031C7.20147 48.5765 7.23898 48.4644 7.22673 48.3128C8.91034 47.2595 9.80536 45.6483 10.0488 43.6947C10.1836 42.6171 10.2288 41.5243 10.2479 40.4369C10.2862 38.1839 10.2456 35.9286 10.3076 33.6772C10.3513 32.0949 11.3718 30.9415 12.6742 30.6823C13.9083 30.436 14.5469 30.4436 16.8438 30.3292V31.8872C16.8438 39.7003 16.5628 47.5126 16.6041 55.3256C16.6187 58.0014 16.918 60.6394 19.8159 61.7951C21.3916 62.4233 23.0798 62.6165 24.8897 63.0394C25.1921 61.2873 25.2909 59.8338 25.5382 58.3955C22.2024 57.4482 21.6779 56.9572 21.6779 53.6289ZM42.1002 38.5537C36.4805 35.8938 29.6603 38.2195 27.0434 43.7985C25.0727 47.9998 25.1431 52.3239 26.878 56.5843C27.819 58.8941 29.5194 60.6235 31.8339 61.6405C36.3542 63.6267 40.9288 63.144 45.4865 61.7496C45.7323 61.6738 46.0462 61.2055 46.0164 60.9569C45.8609 59.6982 45.6029 58.4516 45.3725 57.1519C44.2876 57.4225 43.3811 57.6991 42.4547 57.8711C40.007 58.3265 37.5539 58.3258 35.172 57.3884C32.82 56.4638 31.2406 53.8039 31.6333 51.5305H47.6135C47.8087 49.257 47.7314 46.1311 46.7537 43.5462C45.8808 41.2356 44.3741 39.6306 42.1002 38.5537ZM42.0665 47.7422H31.5652C31.5705 44.7109 34.0642 41.9904 37.3357 42.0525C40.2091 42.1071 42.1967 44.7109 42.0665 47.7422ZM85.0242 57.0474C85.4009 53.2174 84.2325 51.0622 80.7872 49.398C79.5653 48.8077 78.2683 48.3704 77.0234 47.8233C76.0916 47.414 75.1538 46.9995 74.2825 46.4812C73.4342 45.9772 73.0789 45.1406 73.2045 44.1608C73.3277 43.193 73.9563 42.555 74.8643 42.3731C75.9645 42.1518 77.1176 41.9623 78.2239 42.0518C79.7873 42.1783 81.3293 42.5747 82.9425 42.8664L83.9623 38.4575C81.7795 38.1286 79.7444 37.7034 77.688 37.5428C75.401 37.3647 73.1738 37.7406 71.0806 38.8083C66.6576 41.0643 66.5765 47.99 70.6412 50.2634C71.8554 50.9424 73.1547 51.4729 74.418 52.067C75.7479 52.6937 77.126 53.2386 78.3985 53.9646C79.3647 54.5155 79.71 55.4772 79.4512 56.598C79.2116 57.64 78.4145 58.1045 77.4782 58.1932C76.0541 58.3273 74.5933 58.4561 73.1838 58.2902C71.4864 58.0901 69.825 57.5801 68.0863 57.1906L67.1997 61.5783C71.2828 63.0955 75.323 63.344 79.4022 62.449C82.8161 61.7003 84.7608 59.724 85.0242 57.0474ZM63.269 49.8845C61.7691 49.0972 60.1559 48.5227 58.6078 47.821C57.647 47.3852 56.6295 47.0071 55.7827 46.4031C54.1542 45.2414 54.4574 43.0142 56.3538 42.4185C57.4418 42.076 58.6721 41.9699 59.8152 42.0548C61.3725 42.1707 62.9091 42.5693 64.533 42.8603L65.4962 38.6575C64.6716 38.4355 63.9251 38.1937 63.1602 38.0346C60.1199 37.4011 57.0636 37.1555 54.0692 38.1975C51.4967 39.0933 49.712 40.768 49.3591 43.5856C48.964 46.732 50.0183 49.2161 52.9545 50.7105C54.1297 51.3092 55.3891 51.7434 56.5889 52.2981C57.7863 52.8514 59.009 53.3795 60.1215 54.0737C60.9721 54.6042 61.3074 55.5022 61.0678 56.5404C60.8297 57.5695 60.0717 58.0878 59.1284 58.1841C57.7044 58.3288 56.2428 58.463 54.8325 58.3C53.1282 58.103 51.4615 57.5915 49.6921 57.1974C49.431 58.4198 49.1248 59.6512 48.9342 60.8993C48.8928 61.1706 49.1983 61.692 49.4555 61.7807C53.5777 63.1947 57.7733 63.3978 61.9659 62.1755C64.4695 61.4465 66.2204 59.8634 66.5734 57.1565C66.9738 54.0836 66.2335 51.4395 63.269 49.8845Z" fill="#2A4D80"/>
</svg>
